<?xml version="1.0" standalone="no"?>
<!DOCTYPE svg PUBLIC "-//W3C//DTD SVG 20010904//EN"
 "http://www.w3.org/TR/2001/REC-SVG-20010904/DTD/svg10.dtd">
<svg version="1.0" xmlns="http://www.w3.org/2000/svg"
 width="300.000000pt" height="300.000000pt" viewBox="0 0 300.000000 300.000000"
 preserveAspectRatio="xMidYMid meet">
<metadata>
Created by potrace 1.10, written by Peter Selinger 2001-2011
</metadata>
<g transform="translate(0.000000,300.000000) scale(0.100000,-0.100000)"
fill="#000000" stroke="none">
<path d="M1287 2446 c-43 -16 -84 -50 -92 -77 -3 -10 -25 -24 -47 -31 -60 -20
-98 -71 -105 -142 -6 -54 -12 -62 -44 -58 -4 1 -24 -14 -46 -33 -48 -41 -58
-82 -38 -158 13 -50 13 -53 -10 -77 -46 -50 -76 -125 -57 -144 4 -4 7 -11 7
-14 1 -15 29 -58 46 -70 14 -10 17 -24 14 -69 -7 -122 74 -210 200 -218 22 -2
67 -17 99 -34 73 -39 116 -39 187 -3 l54 27 3 527 2 526 -31 26 c-17 14 -38
26 -47 26 -9 0 -26 2 -37 5 -11 3 -37 -2 -58 -9z m98 -31 c21 -8 39 -25 45
-40 6 -16 10 -214 10 -511 0 -474 0 -484 -20 -504 -49 -49 -132 -54 -211 -11
-30 15 -83 33 -118 39 -112 20 -142 54 -149 170 -4 66 -9 82 -35 114 -26 33
-29 43 -25 88 4 36 15 64 37 95 32 44 32 46 21 100 -17 82 -2 117 63 152 48
27 51 31 64 87 16 69 31 90 93 121 25 13 56 37 68 55 24 32 71 59 105 60 10 0
33 -7 52 -15z"/>
<path d="M1625 2453 c-21 -6 -63 -31 -82 -50 -9 -7 -13 -42 -13 -96 0 -66 -3
-86 -15 -91 -9 -3 -15 -18 -15 -36 0 -18 6 -33 15 -36 12 -5 15 -27 15 -109 0
-79 -3 -105 -15 -115 -8 -7 -15 -25 -15 -40 0 -16 7 -30 15 -34 12 -4 15 -26
15 -109 0 -81 -3 -107 -15 -117 -8 -7 -15 -23 -15 -35 0 -12 7 -28 15 -35 11
-9 15 -35 15 -104 l0 -91 33 -21 c82 -53 161 -57 234 -11 24 16 61 28 91 31
124 11 206 99 201 215 -2 48 1 61 20 80 27 27 41 62 43 110 1 41 -13 73 -48
111 -21 23 -22 29 -13 70 22 97 -2 156 -77 193 -37 17 -44 26 -44 49 0 59 -59
140 -117 159 -18 6 -40 23 -50 40 -32 53 -118 89 -178 72z m107 -39 c14 -8 36
-27 48 -44 20 -27 20 -31 5 -54 -18 -27 -70 -50 -89 -39 -6 4 -17 15 -24 25
-26 36 -77 12 -70 -33 4 -32 33 -47 58 -31 11 6 36 12 56 12 30 0 44 7 74 39
l37 38 35 -18 c44 -23 75 -71 80 -124 3 -33 -1 -41 -22 -52 -26 -13 -90 -17
-125 -7 -12 3 -25 15 -30 27 -14 31 -71 36 -80 8 -3 -11 -1 -30 5 -41 9 -17
20 -21 48 -19 20 1 51 2 68 1 29 -2 31 -5 32 -43 2 -43 17 -79 32 -79 6 0 20
-11 32 -25 23 -27 57 -32 76 -13 17 17 15 42 -6 61 -16 15 -21 15 -47 1 -24
-13 -31 -13 -43 -1 -14 15 -23 63 -15 84 3 7 15 13 27 13 12 0 31 7 43 15 20
14 26 14 61 -4 55 -28 67 -47 68 -110 3 -100 -22 -124 -126 -122 -78 1 -117
16 -125 48 -8 34 -107 133 -132 133 -46 0 -54 -58 -11 -81 15 -8 24 -7 36 4
23 21 47 7 71 -41 10 -20 20 -39 21 -42 2 -3 -7 -24 -19 -47 -22 -45 -55 -71
-66 -53 -11 17 -54 11 -65 -9 -16 -31 -12 -47 15 -61 27 -15 19 -20 117 75 11
11 24 32 30 46 9 26 9 26 50 12 50 -17 132 -15 171 4 35 18 48 9 78 -53 24
-51 21 -97 -12 -138 l-21 -26 -43 36 c-24 19 -45 35 -47 34 -2 -1 -16 2 -31 5
-33 9 -98 -10 -133 -38 -14 -10 -31 -16 -39 -13 -24 9 -59 -27 -51 -52 17 -52
86 -40 86 14 0 20 9 29 43 44 70 32 125 22 173 -32 29 -32 35 -76 19 -138 -19
-72 -27 -77 -63 -41 -17 17 -37 31 -45 31 -18 0 -28 34 -20 71 4 21 0 30 -16
39 -47 25 -90 -23 -55 -61 9 -10 23 -19 31 -19 8 0 13 -7 11 -17 -4 -22 -38
-30 -38 -9 0 8 -9 20 -20 26 -30 16 -62 -4 -58 -37 4 -35 30 -50 60 -36 44 22
85 25 117 8 17 -8 31 -17 31 -19 0 -3 3 -11 6 -19 9 -23 -68 -48 -145 -47 -88
2 -165 37 -180 82 -16 44 -14 61 9 81 11 9 20 23 20 31 0 18 -27 46 -45 46
-24 0 -47 -31 -40 -54 3 -12 12 -45 20 -75 16 -66 47 -98 116 -120 l54 -18
-35 -18 c-49 -26 -118 -23 -172 7 l-43 23 0 90 c0 66 4 93 14 101 21 16 22 42
2 57 -15 10 -17 28 -17 118 1 77 5 111 16 123 20 25 21 44 2 59 -25 18 -24
217 1 244 22 25 21 28 -4 51 -18 17 -20 29 -17 98 4 76 5 80 36 100 36 25 103
28 144 8z m-76 -125 c10 -17 -13 -36 -27 -22 -12 12 -4 33 11 33 5 0 12 -5 16
-11z m-100 -100 c10 -17 -13 -36 -27 -22 -12 12 -4 33 11 33 5 0 12 -5 16 -11z
m184 -49 c0 -11 -7 -20 -15 -20 -8 0 -15 9 -15 20 0 11 7 20 15 20 8 0 15 -9
15 -20z m-35 -120 c0 -22 -29 -18 -33 3 -3 14 1 18 15 15 10 -2 18 -10 18 -18z
m260 -50 c0 -8 -8 -16 -17 -18 -13 -2 -18 3 -18 18 0 15 5 20 18 18 9 -2 17
-10 17 -18z m-410 -90 c0 -22 -29 -18 -33 3 -3 14 1 18 15 15 10 -2 18 -10 18
-18z m145 -110 c0 -11 -6 -20 -13 -20 -19 0 -27 10 -20 26 8 21 33 17 33 -6z
m-143 -176 c7 -18 -17 -38 -31 -24 -11 11 -1 40 14 40 6 0 13 -7 17 -16z m118
-13 c3 -5 1 -13 -5 -16 -15 -9 -43 3 -35 15 8 13 32 13 40 1z m165 -85 c0 -20
-19 -31 -32 -18 -6 6 -7 15 -4 21 10 16 36 13 36 -3z"/>
<path d="M338 996 l-3 -175 28 2 29 2 -5 105 c-3 58 -8 115 -12 128 -4 13 -3
22 3 22 9 0 40 -51 124 -205 19 -33 35 -50 48 -51 19 -1 20 5 20 172 0 167 -1
174 -20 174 -22 0 -22 -2 -20 -163 1 -49 4 -95 7 -103 3 -8 0 -14 -6 -14 -6 0
-11 8 -11 18 0 9 -8 31 -18 47 -10 17 -32 55 -49 85 -16 30 -39 71 -50 90 -11
20 -29 36 -41 38 -21 3 -21 0 -24 -172z"/>
<path d="M1597 1154 c-3 -4 0 -16 8 -28 8 -11 15 -25 16 -31 2 -14 2 -13 55
-158 25 -70 50 -130 55 -133 9 -5 28 33 35 67 2 8 26 75 54 147 27 73 50 134
50 137 0 3 -9 5 -21 5 -23 0 -30 -15 -80 -162 -18 -54 -36 -94 -40 -90 -4 4
-12 25 -19 47 -36 119 -73 205 -90 205 -9 0 -19 -3 -23 -6z"/>
<path d="M705 1055 c-57 -27 -68 -42 -73 -98 -5 -65 15 -102 65 -123 51 -22
85 -17 127 18 37 31 38 32 16 40 -16 6 -29 3 -47 -12 -27 -21 -49 -25 -78 -14
-13 5 -2 22 56 80 73 73 73 74 54 93 -27 26 -83 33 -120 16z m70 -35 c4 -6
-18 -36 -49 -67 -55 -56 -55 -56 -61 -30 -9 34 22 89 55 98 37 10 48 10 55 -1z"/>
<path d="M1398 1063 c-30 -5 -75 -52 -84 -89 -19 -74 44 -154 120 -154 33 0
46 7 80 43 34 34 41 49 40 79 -2 81 -70 133 -156 121z m90 -66 c28 -25 29 -76
3 -108 -27 -33 -95 -33 -122 0 -37 46 -11 121 46 133 27 6 45 -1 73 -25z"/>
<path d="M915 963 c4 -84 5 -89 35 -116 33 -29 65 -32 106 -9 30 16 37 36 43
130 6 80 5 82 -16 82 -22 0 -23 -4 -23 -75 0 -62 -4 -79 -20 -95 -24 -24 -39
-25 -66 -6 -16 12 -19 27 -19 95 1 77 0 81 -22 81 -21 0 -22 -2 -18 -87z"/>
<path d="M1168 940 c-2 -61 0 -110 4 -110 3 0 13 -3 22 -6 14 -5 16 5 16 70 0
63 4 80 20 96 11 11 27 20 35 20 8 0 15 9 15 20 0 25 -26 26 -52 3 -17 -15
-18 -15 -18 0 0 10 -8 17 -19 17 -18 0 -20 -9 -23 -110z"/>
<path d="M1973 1034 c-80 -40 -91 -139 -22 -200 47 -42 124 -37 168 10 l22 23
-23 6 c-12 4 -29 0 -38 -7 -22 -20 -54 -27 -79 -18 -19 7 -15 13 53 81 l75 74
-25 20 c-34 26 -92 31 -131 11z m89 -29 c4 -5 -98 -115 -107 -115 -11 0 -4 67
8 82 23 29 82 49 99 33z"/>
<path d="M2605 1041 c-39 -17 -67 -58 -72 -105 -5 -39 -1 -51 21 -80 50 -66
146 -69 193 -7 16 23 -23 37 -46 17 -22 -20 -63 -28 -81 -16 -12 8 -1 23 58
83 l73 74 -27 18 c-31 20 -91 28 -119 16z m85 -40 c7 -2 -103 -111 -112 -111
-12 0 -10 45 3 74 16 35 58 50 109 37z"/>
<path d="M2262 1020 c-25 -24 -36 -26 -28 -5 4 11 -1 15 -17 15 -22 0 -22 -2
-20 -112 1 -62 4 -112 7 -110 3 1 13 2 21 2 12 0 15 15 15 73 0 76 9 95 52
110 11 4 15 13 11 26 -7 26 -14 26 -41 1z"/>
<path d="M2375 1015 c-38 -37 -31 -59 33 -104 35 -25 40 -42 17 -61 -12 -10
-18 -10 -31 1 -19 16 -54 22 -54 10 0 -5 8 -19 18 -32 36 -43 122 -18 122 37
0 36 -10 52 -47 75 -44 27 -42 55 5 51 37 -4 42 10 10 32 -31 22 -45 20 -73
-9z"/>
</g>
</svg>
