<svg version="1.0" id="RKLogo" xmlns="http://www.w3.org/2000/svg"
 viewBox="0 0 400.000000 377.000000">
 <style>
    svg#RKLogo {
  fill: none;
  stroke: url(#grad);
  stroke-width: 10px;
  stroke-linecap: round;
  stroke-linejoin: round;
  stroke-miterlimit: 10;
  animation: fill 0.5s linear forwards 2.5s;
}

svg#RKLogo g path {
  stroke-dasharray: 25200;
  stroke-dashoffset: 25200;
  animation: line 8s cubic-bezier(0.03, 0.03, 0.07, 0.89) forwards;
}

@keyframes line {
  100% {
    stroke-dashoffset: 0;
  }
}

@keyframes fill {
  0% {
    fill: transparent;
    stroke: url(#grad);
  }
  100% {
    fill: url(#grad);
    stroke: transparent;
  }
}

 </style>
<linearGradient id="grad" x1="0%" y1="0%" x2="100%" y2="0%">
        <stop offset="0%" stop-color="#FF924E" stop-opacity="1" />
        <stop offset="73%" stop-color="#FFD6BD" stop-opacity="1" />
        <stop offset="75%" stop-color="#FFD6BD" stop-opacity="1" />
        <stop offset="100%" stop-color="#FF924E" stop-opacity="1" />
</linearGradient>

<title>RK Logo</title>
<g transform="translate(0.000000,377.000000) scale(0.100000,-0.100000)">
<path d="M2082 3728 l-61 -32 -75 13 c-87 14 -135 8 -194 -26 -61 -34 -85 -87
-86 -184 -1 -72 2 -81 47 -167 26 -50 47 -100 47 -111 0 -30 -63 -43 -210 -42
-149 1 -217 -15 -250 -57 -39 -49 -3 -122 61 -122 35 0 68 43 53 67 -13 20
-29 17 -29 -5 0 -27 -13 -41 -35 -35 -34 9 -44 29 -31 62 21 49 65 61 258 64
135 2 141 -10 10 -22 -45 -4 -92 -13 -103 -19 -31 -16 -39 -44 -17 -60 21 -15
45 -12 51 6 2 8 -2 12 -9 10 -8 -1 -16 2 -18 7 -7 17 42 35 95 35 29 0 75 7
103 17 28 9 54 13 58 9 12 -12 -47 -62 -100 -84 -28 -11 -128 -50 -222 -86
-270 -104 -476 -213 -582 -309 -252 -228 -386 -473 -433 -792 -36 -237 -22
-432 47 -655 131 -427 406 -765 790 -971 39 -22 77 -39 84 -39 7 0 44 -15 84
-34 69 -33 253 -84 385 -107 91 -16 338 -13 445 4 271 45 547 162 755 320 194
147 410 435 494 659 86 227 119 576 70 738 -9 30 -19 80 -24 111 -9 70 -69
226 -130 342 -129 245 -306 427 -570 584 -210 126 -560 245 -621 212 -31 -16
-14 -27 99 -59 173 -51 337 -136 506 -263 173 -132 320 -318 417 -534 33 -72
79 -215 79 -244 0 -16 -29 -17 -422 -17 -466 0 -466 3 2 42 259 22 270 24 270
41 0 18 -25 19 -101 5 -30 -5 -178 -24 -329 -41 -151 -17 -283 -32 -292 -33
-10 -1 -21 -5 -24 -9 -18 -17 -34 -3 -49 43 -20 59 -90 141 -160 185 -65 41
-134 55 -279 56 l-119 1 -72 76 c-39 43 -125 137 -190 210 -109 121 -145 151
-145 121 0 -6 86 -99 191 -207 157 -160 188 -197 174 -204 -12 -7 -29 -1 -64
24 -41 28 -223 165 -308 232 -18 13 -27 16 -35 8 -18 -18 0 -32 190 -158 l176
-117 -29 -23 c-28 -22 -31 -23 -55 -7 -25 17 -197 110 -345 188 -44 23 -96 51
-115 63 -38 23 -74 16 -52 -10 6 -7 126 -69 266 -138 141 -69 255 -127 255
-130 0 -3 -6 -14 -14 -24 -15 -19 -16 -19 -87 3 -40 13 -141 51 -225 83 -140
56 -183 65 -183 39 0 -5 107 -44 238 -87 130 -42 241 -80 247 -85 6 -6 1 -17
-11 -30 -21 -20 -23 -20 -85 -5 -35 8 -145 31 -244 51 -99 20 -208 43 -243 51
-51 13 -66 13 -78 3 -14 -11 -14 -13 0 -21 8 -5 32 -10 53 -13 21 -2 85 -13
143 -23 58 -11 176 -32 263 -48 119 -21 157 -31 157 -42 0 -13 -23 -14 -167
-7 -264 13 -298 12 -298 -5 0 -16 -1 -16 292 -19 155 -1 161 -2 156 -21 -5
-19 -16 -20 -424 -22 -296 -2 -419 0 -419 8 0 6 9 40 21 75 91 280 279 508
525 638 54 29 64 31 83 20 16 -11 23 -11 33 -1 10 10 10 15 -2 22 -8 5 -12 10
-10 12 16 12 140 63 225 93 296 107 468 185 565 258 235 178 324 420 220 604
-28 51 -65 79 -137 104 -76 26 -99 24 -171 -13z m201 -27 c80 -39 136 -155
123 -254 -14 -100 -63 -206 -140 -297 -54 -65 -56 -51 -3 23 82 114 101 165
102 273 0 113 -25 172 -94 216 -68 42 -131 38 -188 -15 -30 -27 -37 -18 -14
19 40 65 123 79 214 35z m-251 -26 c9 -9 -40 -194 -64 -238 -8 -16 -7 -23 8
-34 12 -9 21 -10 28 -3 19 19 25 10 14 -20 -7 -22 -24 -38 -59 -55 -71 -36
-89 -34 -90 13 -2 68 3 87 37 142 39 64 64 131 64 171 0 25 4 29 28 29 16 0
31 -2 34 -5z m-135 -1496 c87 -12 123 -29 147 -69 22 -39 20 -76 -8 -124 -28
-49 -86 -88 -219 -150 -186 -86 -253 -148 -250 -230 3 -67 67 -106 124 -76 20
11 26 45 9 55 -12 7 -13 55 -2 71 11 17 48 34 110 51 128 34 330 -11 532 -119
166 -89 204 -107 255 -119 75 -18 75 -18 75 -27 0 -15 -105 -81 -169 -107 -85
-33 -211 -63 -301 -72 -101 -10 -115 -10 -118 2 -1 6 23 11 55 12 102 5 266
42 360 83 86 37 108 80 40 80 -18 0 -57 9 -87 20 -30 11 -67 20 -82 20 -15 0
-30 5 -33 10 -3 6 -22 10 -41 10 -20 0 -44 5 -55 11 -29 15 -127 13 -146 -3
-15 -11 -16 -11 -9 7 14 36 11 40 -25 43 -28 2 -38 8 -42 24 -5 17 -11 20 -36
15 -23 -5 -31 -3 -31 8 0 24 -45 18 -78 -9 -19 -17 -36 -23 -50 -19 -26 6 -52
-12 -52 -36 1 -14 2 -14 14 2 18 24 39 22 31 -3 -9 -30 1 -25 44 20 39 41 71
52 71 25 0 -9 -12 -27 -26 -42 -14 -14 -22 -28 -19 -32 4 -3 20 9 35 26 26 29
80 55 80 38 0 -20 -26 -47 -67 -72 -25 -15 -41 -29 -35 -31 12 -4 54 18 92 48
31 24 80 37 80 21 0 -42 -158 -120 -197 -97 -10 6 -18 20 -18 31 0 13 -8 21
-22 23 -13 2 -23 -1 -23 -7 0 -6 7 -11 16 -11 27 0 9 -23 -37 -47 -51 -26 -87
-29 -95 -8 -8 19 -24 19 -24 0 0 -21 38 -38 68 -30 21 5 24 4 13 -8 -6 -8 -31
-20 -56 -26 -24 -6 -47 -15 -50 -21 -3 -5 -21 -17 -40 -26 -26 -12 -38 -13
-54 -4 -18 9 -27 7 -54 -14 -38 -29 -87 -36 -111 -17 -9 7 -27 11 -41 9 -14
-3 -28 -1 -31 3 -8 13 -24 11 -24 -3 -1 -7 -15 -22 -33 -33 -24 -16 -31 -27
-29 -45 5 -49 2 -71 -18 -109 -25 -50 -121 -154 -177 -193 -48 -32 -52 -53 -6
-23 48 31 165 148 194 194 34 52 39 45 7 -8 -59 -97 -238 -257 -238 -213 0 5
-9 18 -20 30 l-20 21 31 22 c17 12 27 24 22 28 -4 3 20 34 55 68 34 34 62 57
62 51 0 -5 -25 -34 -56 -65 -30 -31 -47 -53 -37 -49 10 3 0 -10 -22 -29 -53
-46 -30 -45 32 2 61 46 115 101 148 151 21 32 24 45 18 75 l-8 37 -37 -25
c-21 -14 -44 -22 -52 -19 -23 9 -46 -14 -46 -46 0 -20 -13 -40 -48 -72 -27
-25 -59 -51 -73 -58 -13 -7 0 9 29 35 49 44 93 105 74 105 -4 0 -16 -13 -25
-30 -23 -38 -103 -104 -117 -95 -20 12 -10 31 46 85 133 129 234 285 234 359
0 19 3 32 6 28 4 -3 6 -25 6 -47 -1 -52 -39 -127 -103 -201 -48 -56 -65 -87
-31 -57 9 9 26 18 37 20 14 3 19 11 18 26 -3 19 0 21 16 12 28 -15 33 -13 26
10 -8 25 20 28 30 3 6 -16 8 -15 26 7 12 15 17 34 14 48 -6 25 17 41 38 24 15
-13 67 -4 67 12 0 6 -9 36 -21 66 -43 113 -4 237 105 337 83 75 167 122 318
173 149 51 190 71 211 104 37 56 8 106 -61 106 -26 0 -44 -11 -86 -50 -58 -55
-70 -59 -85 -31 -6 10 -22 22 -36 25 -53 13 -11 76 80 117 48 22 43 22 142 8z
m-307 -289 c0 -17 -81 -50 -123 -50 -20 0 -46 5 -56 12 -15 9 -24 7 -50 -11
-50 -36 -127 -28 -160 17 -15 20 -20 23 -21 10 0 -25 46 -56 95 -64 36 -5 51
-2 80 16 29 18 41 20 58 12 12 -6 30 -12 41 -14 13 -2 -3 -17 -54 -50 -69 -45
-109 -61 -95 -38 3 6 12 10 19 10 20 0 67 40 60 51 -3 5 -10 7 -15 3 -5 -3 -7
-9 -4 -14 3 -4 -2 -10 -10 -14 -8 -3 -15 -1 -15 4 0 5 -7 7 -15 4 -8 -4 -13
-10 -10 -14 3 -5 -13 -14 -35 -22 -51 -17 -54 -30 -10 -45 33 -11 33 -12 8
-12 -15 -1 -30 -6 -33 -12 -12 -19 -36 28 -29 56 5 21 3 25 -15 25 -11 0 -39
-10 -62 -22 -23 -11 -63 -23 -90 -26 -27 -2 -46 -9 -43 -14 9 -14 83 0 142 27
28 13 52 20 52 14 0 -14 -38 -49 -55 -49 -13 0 -63 -19 -106 -40 -10 -5 -22
-3 -31 6 -11 12 -21 12 -42 4 -41 -15 -55 -11 -23 6 40 21 28 28 -16 9 -20 -8
-57 -15 -82 -15 -25 0 -45 -3 -45 -8 0 -4 38 -7 85 -7 72 0 83 -2 68 -13 -10
-7 -27 -10 -38 -6 -34 12 -97 5 -124 -13 -28 -18 -82 -23 -80 -7 1 5 13 14 28
20 27 12 26 13 -22 28 -9 3 -14 23 -16 56 -2 80 3 90 53 90 24 0 51 7 62 16
19 15 19 16 -1 8 -11 -4 -38 -9 -60 -10 l-40 -3 35 10 c19 6 41 13 48 15 10 3
11 6 1 17 -17 17 -59 10 -52 -9 3 -8 -1 -14 -11 -14 -22 0 -30 24 -16 49 10
20 18 21 438 24 235 1 428 3 430 5 1 1 2 -3 2 -8z m1730 -2 c0 -5 0 -15 0 -23
0 -12 -8 -14 -42 -9 -24 4 -39 3 -35 -2 4 -4 29 -11 55 -15 46 -8 46 -8 -11
-5 -57 3 -66 -7 -17 -17 14 -3 -5 -3 -43 -1 -37 3 -74 7 -82 10 -8 4 -15 1
-15 -5 0 -6 -7 -8 -15 -5 -10 4 -15 0 -16 -12 0 -16 -2 -15 -9 4 -11 27 -24
29 -17 2 3 -10 -1 -27 -9 -37 -12 -16 -13 -15 -8 13 4 19 1 34 -5 38 -7 5 -11
-5 -11 -28 0 -20 -4 -36 -8 -36 -5 0 -7 13 -4 29 2 16 -1 32 -7 35 -7 5 -12
-6 -12 -31 -2 -34 -2 -35 -6 -8 -3 17 -9 34 -14 40 -6 6 -7 -2 -4 -20 4 -20 1
-37 -10 -50 -15 -19 -15 -19 -9 8 7 31 -2 77 -15 77 -6 0 -6 -13 0 -32 5 -21
5 -36 -1 -42 -7 -7 -10 0 -10 19 0 17 -5 37 -10 45 -7 11 -10 5 -10 -22 0 -21
-2 -38 -4 -38 -2 0 -12 -3 -22 -7 -12 -4 -15 -3 -10 5 4 6 2 21 -4 32 -13 25
5 28 19 3 6 -10 11 -13 11 -8 0 6 -7 21 -16 33 -22 31 -48 13 -33 -24 11 -32
12 -64 0 -64 -4 0 -11 18 -14 41 -6 49 -49 95 -75 80 -14 -8 -12 -11 13 -23
17 -7 35 -20 42 -28 15 -18 17 -57 3 -65 -5 -3 -9 2 -8 12 2 33 -2 53 -12 53
-5 0 -7 -13 -4 -29 4 -16 1 -32 -5 -35 -7 -5 -11 2 -11 18 0 31 -9 56 -21 56
-6 0 -5 -8 1 -19 13 -25 13 -41 0 -41 -5 0 -10 8 -10 19 0 10 -7 24 -15 31
-18 15 -19 7 -4 -21 16 -31 4 -53 -21 -39 -11 6 -20 17 -20 25 0 8 -5 15 -11
15 -5 0 -7 -4 -4 -10 3 -5 1 -10 -4 -10 -6 0 -11 8 -11 17 0 15 -2 14 -16 -3
-11 -13 -17 -15 -20 -6 -3 6 -10 9 -15 6 -6 -3 -16 -1 -24 6 -9 7 -15 8 -20 0
-3 -5 -11 -10 -16 -10 -6 0 -8 4 -4 9 3 5 1 12 -5 16 -5 3 -10 2 -10 -2 0 -5
-7 -18 -16 -29 -15 -18 -15 -18 -9 4 4 13 2 22 -4 22 -6 0 -11 -6 -11 -12 0
-7 -9 -24 -20 -38 -23 -29 -26 -16 -5 20 25 44 20 50 -47 50 -35 0 -58 -4 -51
-8 8 -5 9 -13 3 -22 -8 -12 -10 -11 -11 5 -1 11 -1 26 0 33 3 17 -5 15 -47
-13 -20 -14 -43 -25 -52 -25 -8 0 0 10 18 21 36 24 41 33 12 24 -12 -4 -20 -2
-20 5 0 7 -9 6 -27 -3 -16 -8 -41 -17 -58 -20 -27 -6 -28 -5 -7 5 25 13 30 31
5 21 -11 -4 -14 -3 -9 5 4 8 0 12 -11 12 -10 0 -29 3 -43 5 -22 5 -22 4 -5 -4
18 -8 16 -10 -10 -10 -17 -1 -36 4 -41 9 -7 7 -28 8 -53 4 -29 -5 -39 -10 -32
-17 7 -7 19 -7 37 2 29 13 39 9 39 -17 0 -13 12 -18 46 -22 26 -3 55 -12 64
-20 16 -14 44 -19 100 -19 99 -1 131 -4 143 -13 14 -12 14 -13 35 27 9 17 16
23 16 15 0 -8 -6 -26 -13 -39 -8 -14 -12 -31 -9 -38 7 -17 3 -16 -36 3 -23 11
-46 15 -75 11 -24 -4 -47 -2 -52 3 -9 8 -102 28 -172 35 -18 2 -44 11 -57 19
-13 9 -33 16 -43 16 -11 0 -25 7 -32 15 -15 19 -50 3 -50 -24 0 -9 -12 -28
-27 -42 l-26 -24 22 37 c18 30 20 41 11 58 -7 12 -10 23 -8 25 27 22 69 31
178 35 198 8 1240 6 1240 -2z m-105 -105 c9 -12 20 -14 41 -9 65 16 82 17 88
7 12 -18 10 -234 -3 -311 -20 -123 -39 -204 -67 -282 -83 -232 -269 -480 -449
-600 -86 -57 -110 -67 -256 -112 -128 -40 -129 -40 -129 -26 0 6 8 10 18 10
42 0 371 134 359 146 -2 2 -41 -13 -88 -32 -105 -46 -281 -104 -291 -98 -15
10 2 22 39 29 59 11 300 102 365 138 80 44 73 55 -9 13 -72 -35 -261 -102
-268 -94 -3 3 32 17 77 32 46 16 122 48 171 72 48 24 93 44 101 44 8 0 24 9
37 20 l24 20 -40 -16 c-31 -13 -177 -81 -217 -101 -5 -2 -8 -2 -8 1 0 3 12 12
28 21 26 15 26 16 2 9 -14 -3 -36 -13 -48 -21 -13 -8 -26 -12 -29 -9 -3 2 18
16 45 30 31 16 52 21 54 15 4 -13 191 79 231 114 31 28 35 39 10 30 -13 -5
-10 3 10 26 46 56 84 142 116 265 39 147 70 213 126 265 48 44 52 51 32 51
-24 0 -92 -67 -115 -114 -13 -26 -37 -102 -54 -169 -16 -67 -42 -149 -57 -182
-30 -65 -123 -185 -129 -167 -2 6 14 33 36 59 45 54 88 135 107 202 18 63 35
216 29 271 -2 25 -6 69 -8 99 -2 42 -8 58 -24 69 -18 12 -24 11 -46 -3 -15
-10 -35 -15 -48 -12 -15 4 -30 -1 -44 -14 -18 -17 -25 -19 -42 -8 -26 16 -50
6 -63 -28 -8 -22 -7 -30 6 -39 15 -11 15 -17 4 -51 -18 -52 -28 -62 -40 -40
-19 33 -55 20 -93 -33 -33 -46 -56 -63 -56 -41 0 5 -11 0 -24 -12 -25 -22 -76
-29 -88 -12 -5 6 -14 6 -25 -3 -29 -20 -66 -34 -101 -36 -18 -2 -41 -11 -52
-21 -23 -21 -109 -23 -121 -3 -4 6 -15 8 -25 4 -10 -4 -21 -1 -25 5 -4 7 -17
9 -33 5 -15 -4 -25 -10 -22 -14 2 -4 -21 -7 -52 -7 -31 1 -79 -2 -105 -6 -29
-5 -57 -4 -71 2 -18 8 -31 7 -55 -5 -29 -16 -33 -15 -59 4 -15 11 -43 21 -62
22 -19 1 -38 7 -42 12 -8 13 -7 14 -47 -56 -34 -61 -82 -118 -100 -118 -20 0
-12 26 15 51 39 35 94 124 94 152 0 35 9 39 41 16 16 -11 33 -18 38 -14 5 3
12 1 16 -4 3 -6 12 -8 20 -4 9 3 23 -1 32 -8 9 -8 30 -15 47 -17 111 -9 183
-8 266 5 52 8 108 12 123 9 35 -7 168 11 181 24 6 6 24 10 41 10 17 0 36 5 43
12 7 7 28 13 47 14 19 0 43 8 52 16 10 8 31 18 47 22 35 9 98 75 126 132 34
69 24 87 -36 64 -15 -6 -29 -9 -31 -6 -2 2 10 25 26 52 24 38 31 59 31 100 0
45 -3 54 -27 70 -16 11 -39 20 -53 21 -14 1 -32 3 -40 4 -48 7 -93 -3 -116
-26 -14 -14 -27 -25 -31 -25 -3 0 -26 -17 -52 -39 -38 -32 -50 -37 -67 -29
l-22 10 24 35 c13 20 24 44 24 54 0 11 5 19 10 19 13 0 13 -4 -5 -48 l-15 -37
39 43 c21 23 42 42 47 42 4 0 21 12 37 28 25 24 35 27 88 25 35 -2 69 -9 85
-19 39 -26 176 -28 208 -3 20 16 25 17 42 4 10 -8 33 -14 49 -14 42 0 140 34
140 48 0 33 67 36 90 4z m-2000 -128 c0 -17 -6 -19 -34 -17 -22 2 -31 0 -26
-7 3 -6 13 -11 21 -11 21 0 17 -28 -6 -35 -11 -4 -18 -11 -15 -16 9 -14 45 9
55 34 7 18 9 16 9 -17 1 -48 11 -42 13 8 1 20 2 36 4 36 1 0 14 -4 28 -10 19
-7 26 -6 26 2 0 6 2 9 5 7 2 -3 2 -15 -2 -27 -5 -22 -7 -22 -24 -6 -22 19 -25
13 -7 -15 26 -42 -53 -68 -96 -32 -13 11 -20 11 -28 3 -8 -8 -15 -9 -25 -1
-17 15 -39 -2 -48 -38 -5 -23 -9 -25 -43 -19 -124 21 -115 21 -103 -2 6 -11
11 -35 11 -52 l0 -31 -23 27 c-23 26 -24 27 -75 14 -59 -16 -71 -34 -42 -65
11 -12 20 -25 20 -31 0 -5 -7 0 -15 10 -22 28 -27 15 -15 -37 5 -25 7 -53 4
-61 -3 -9 -1 -16 5 -16 6 0 13 10 15 23 13 57 15 57 11 0 -4 -52 -2 -63 10
-63 18 0 33 36 42 95 4 31 0 52 -16 83 -24 47 -21 56 6 15 10 -15 20 -54 23
-88 l5 -60 23 35 c21 34 22 34 22 9 0 -14 -11 -47 -25 -73 -13 -25 -20 -46
-15 -46 32 0 100 125 100 185 0 44 -16 54 -24 15 -3 -17 -10 -30 -17 -30 -7 0
-8 11 -3 33 3 17 8 46 9 62 3 27 6 30 36 27 18 -1 34 -4 35 -5 9 -8 -28 -162
-48 -203 -14 -27 -24 -54 -21 -59 2 -6 -11 -24 -29 -40 -18 -17 -26 -22 -19
-12 23 29 8 27 -28 -5 -22 -20 -30 -33 -23 -40 16 -16 45 6 108 80 81 95 126
193 125 274 0 42 3 58 9 48 12 -19 12 -74 -1 -129 -12 -52 -82 -163 -146 -232
-25 -27 -41 -49 -35 -49 6 0 42 36 81 81 73 84 123 173 140 249 l10 45 -4 -56
c-2 -31 -13 -75 -24 -97 -43 -84 -231 -295 -248 -278 -5 4 3 16 16 27 13 11
21 22 17 26 -3 4 -16 -3 -29 -15 l-22 -21 -24 50 c-12 28 -20 57 -17 65 3 8
-1 14 -8 14 -19 0 -61 128 -82 252 -20 112 -16 133 24 125 17 -3 34 1 45 10
11 10 46 19 95 23 72 6 104 3 75 -7 -19 -7 -16 -21 7 -33 16 -9 27 -6 54 15
18 14 37 25 43 25 5 0 22 14 36 30 15 17 36 30 46 30 11 0 23 5 26 11 11 17
40 5 40 -16z m1522 -73 c-4 -19 -18 -52 -33 -74 -26 -38 -29 -39 -68 -32 -23
3 -51 10 -63 15 l-22 8 32 70 c36 80 48 80 18 0 -11 -29 -19 -55 -16 -57 5 -6
45 75 45 93 0 21 20 19 20 -2 1 -14 4 -12 16 7 15 25 15 25 8 -10 -3 -19 -12
-48 -20 -64 -8 -16 -12 -31 -10 -34 7 -7 47 78 49 104 1 14 9 29 17 34 21 13
34 -14 27 -58z m-433 -101 c3 -5 -31 -19 -77 -31 -45 -11 -86 -22 -92 -24 -6
-1 -6 -4 0 -8 6 -3 44 3 85 14 108 29 152 37 168 31 21 -9 -86 -51 -172 -69
l-74 -15 -26 24 c-24 23 -25 26 -11 41 9 9 22 16 28 17 7 0 39 6 72 14 74 16
92 18 99 6z m406 -40 c0 -18 -96 -94 -155 -123 -123 -60 -319 -118 -445 -132
-166 -18 -177 -18 -184 -1 -5 14 0 16 32 11 46 -6 113 8 127 27 6 9 40 16 92
20 107 8 279 51 368 92 40 19 87 50 110 74 38 40 55 50 55 32z m-257 -20 c-35
-29 -211 -78 -295 -82 -27 -2 -48 -6 -48 -11 0 -12 26 -10 126 7 115 20 190
43 234 72 35 23 90 31 90 13 0 -24 -183 -91 -300 -110 -95 -15 -139 -13 -165
9 l-24 18 22 11 c12 6 58 18 102 26 44 8 109 26 145 39 36 14 81 25 100 26
l35 0 -22 -18z m162 -334 c-5 -31 -11 -44 -20 -41 -8 4 -17 -12 -25 -45 -7
-28 -16 -51 -21 -51 -4 0 -13 -9 -19 -21 -9 -16 -8 -26 5 -45 8 -13 11 -24 5
-24 -6 0 -15 10 -20 23 -5 12 -9 16 -9 10 -1 -19 -21 -16 -21 3 0 10 -9 5 -26
-15 -28 -34 -47 -41 -37 -13 3 10 -9 3 -30 -17 -20 -19 -39 -32 -43 -28 -3 3
33 45 80 94 48 48 108 118 133 155 26 38 48 66 50 64 3 -2 1 -25 -2 -49z
m-565 -94 c24 -38 30 -58 30 -104 0 -64 -26 -109 -63 -109 -28 0 -57 50 -57
98 0 41 39 162 52 162 5 0 22 -21 38 -47z m-567 -102 c81 -39 72 -74 -20 -75
-71 -1 -77 -20 -8 -24 65 -4 85 -22 57 -50 -76 -76 -319 -39 -358 54 -13 31
-13 38 2 63 26 43 89 62 196 57 62 -2 99 -9 131 -25z m1364 -24 c41 7 63 -10
63 -47 0 -38 -50 -80 -128 -109 l-63 -22 -62 20 c-34 11 -88 27 -120 36 -32 9
-55 20 -52 25 3 6 31 22 61 36 50 24 53 27 43 47 -12 21 -11 22 8 4 11 -9 27
-15 36 -12 21 9 97 -13 98 -28 1 -7 1 -18 0 -24 -1 -7 5 -13 14 -13 26 0 18
47 -11 66 -33 22 -15 33 39 23 23 -4 56 -5 74 -2z m-594 -60 c10 -6 24 -33 32
-60 14 -45 13 -47 -7 -47 -11 0 -37 19 -59 42 -21 23 -41 39 -45 36 -3 -4 1
-14 10 -23 16 -16 19 -27 30 -92 5 -28 2 -33 -14 -33 -42 0 -69 22 -82 68 -7
25 -19 47 -27 50 -11 4 -12 -2 -5 -24 12 -42 9 -109 -8 -132 -13 -20 -15 -19
-51 26 -32 39 -37 52 -35 86 4 49 21 57 43 19 l16 -28 -5 33 c-5 31 -5 32 33
32 25 0 44 -7 56 -20 23 -25 31 -19 15 10 -10 18 -9 24 1 31 20 13 63 11 77
-3 6 -6 15 -8 19 -4 5 4 0 13 -10 20 -18 14 -22 26 -9 26 5 0 16 -6 25 -13z
m346 -121 c-8 -8 -167 -86 -174 -86 -4 0 -19 -8 -33 -19 -33 -22 -145 -72
-266 -117 -109 -41 -102 -28 9 16 109 43 449 209 443 216 -3 3 -59 -21 -124
-54 -105 -52 -179 -87 -329 -152 -22 -10 -51 -20 -65 -24 -30 -7 19 17 155 76
54 24 158 72 230 108 109 55 132 64 144 52 7 -7 12 -14 10 -16z m-1244 -179
c11 -7 47 -23 80 -36 71 -28 88 -41 56 -41 -16 0 -21 -4 -17 -15 3 -8 2 -15
-3 -15 -16 0 -86 32 -103 47 -17 15 -38 11 -38 -7 0 -6 16 -16 36 -25 21 -8
34 -20 31 -27 -2 -7 -11 -11 -18 -9 -8 3 -27 5 -44 5 -28 1 -30 -1 -30 -36 0
-21 5 -37 10 -35 6 1 9 12 7 25 -3 25 6 28 32 9 15 -11 17 -17 7 -35 -8 -14
-9 -28 -3 -39 8 -13 15 -4 37 45 15 34 30 62 33 62 2 0 22 -5 43 -12 25 -7 39
-17 39 -28 0 -27 -11 -30 -33 -9 -25 23 -40 24 -57 4 -15 -19 -3 -38 21 -32
10 3 21 2 24 -3 6 -9 -19 -20 -46 -20 -12 0 -19 -7 -19 -19 0 -28 18 -36 40
-16 21 19 42 12 33 -12 -4 -10 -2 -14 8 -11 7 2 23 29 35 58 25 63 50 81 39
29 -4 -19 -13 -49 -21 -68 -13 -32 -11 -51 5 -51 5 0 16 27 25 60 9 32 21 62
26 65 16 10 90 -17 90 -33 0 -10 -6 -12 -22 -7 -52 16 -68 17 -68 5 0 -6 9
-14 20 -17 18 -5 19 -7 7 -22 -10 -11 -12 -23 -6 -36 13 -30 57 -80 65 -73 3
4 -6 21 -20 39 -15 17 -25 36 -23 42 7 21 24 17 35 -8 15 -32 36 -22 29 14 -3
14 0 35 5 46 14 27 13 26 32 19 20 -8 20 -22 1 -44 -13 -14 -12 -21 7 -59 13
-27 24 -39 30 -33 6 6 6 17 -1 30 -16 31 -14 34 13 17 13 -9 26 -25 29 -37 10
-37 32 -13 35 38 2 27 11 57 19 66 18 20 22 19 -77 40 -52 11 -65 17 -65 32 0
11 -6 21 -12 23 -8 3 -13 -4 -13 -16 0 -12 -1 -21 -2 -21 -2 0 -25 7 -51 15
-32 10 -63 29 -90 57 -23 23 -32 38 -21 34 28 -12 145 -46 174 -52 146 -28
208 -36 300 -37 59 -1 106 -5 103 -9 -2 -5 -12 -8 -21 -8 -12 0 -13 -3 -4 -12
9 -9 18 -9 37 0 17 8 33 9 51 1 15 -5 25 -11 23 -14 -3 -2 -56 -5 -119 -7
l-115 -4 3 -44 c2 -25 11 -53 20 -63 16 -17 15 -20 -1 -32 -9 -6 -17 -15 -17
-19 0 -13 28 -5 45 14 18 20 36 27 34 12 -3 -20 2 -33 12 -30 6 2 11 31 12 65
1 34 4 63 7 66 3 2 24 7 48 10 34 4 44 2 52 -13 8 -15 4 -18 -37 -18 -50 -1
-65 -8 -44 -21 7 -5 11 -14 7 -19 -10 -16 39 -45 64 -37 11 3 20 2 20 -3 0 -6
7 -13 15 -16 14 -5 15 4 13 61 -2 46 1 68 10 71 9 3 12 -13 12 -55 0 -62 12
-95 29 -78 5 6 6 34 1 69 -5 33 -7 63 -4 68 3 4 21 8 40 8 42 0 48 -27 7 -32
-62 -7 -19 -88 46 -88 15 0 31 -4 37 -10 5 -5 15 -6 23 -1 11 7 8 14 -14 35
-26 24 -30 25 -46 10 -14 -12 -22 -13 -38 -4 -27 14 -27 30 0 30 37 0 60 19
53 44 -4 16 0 25 10 29 35 14 60 -15 35 -40 -20 -20 1 -36 42 -30 23 3 39 1
42 -6 2 -6 11 -8 20 -4 16 6 16 9 2 43 -8 20 -15 45 -15 56 0 36 29 0 36 -44
7 -42 20 -56 36 -40 6 6 5 19 -5 38 -8 16 -17 40 -20 55 -6 22 -2 27 31 42 46
21 67 5 23 -17 -39 -21 -40 -47 -2 -69 43 -25 60 -20 26 8 -16 13 -25 24 -18
25 6 0 18 3 27 6 9 4 16 1 16 -6 0 -15 29 -39 47 -40 7 0 1 19 -14 46 -14 26
-26 59 -25 75 1 34 -14 37 -59 13 -90 -46 -361 -118 -378 -101 -5 5 -31 15
-57 22 l-47 12 79 7 c127 12 177 23 168 37 -3 5 -1 9 5 9 5 0 11 -4 13 -10 4
-11 143 37 248 88 l79 37 11 -44 c14 -56 36 -99 67 -133 l25 -26 -23 -13
c-158 -87 -370 -164 -519 -190 -113 -20 -443 -17 -550 4 -140 28 -278 75 -410
140 -69 33 -126 62 -128 63 -2 1 16 31 40 65 24 35 52 83 62 107 20 45 30 50
61 29z"/>
<path d="M884 1854 c5 -12 1 -14 -17 -9 -18 6 -20 5 -9 -6 8 -9 39 -14 85 -15
41 0 82 -6 93 -13 17 -11 16 -12 -9 -6 -19 4 -26 2 -22 -5 3 -5 13 -10 21 -10
8 0 14 -5 14 -11 0 -7 12 -9 36 -4 21 4 34 3 30 -3 -3 -5 -27 -12 -52 -15 -35
-4 -55 0 -78 14 -36 22 -51 24 -39 7 4 -7 8 -15 9 -18 15 -49 16 -50 64 -50
49 0 160 36 160 51 0 13 -13 11 -35 -5 -35 -24 -165 -46 -165 -27 0 4 28 11
63 13 82 7 109 21 98 51 -7 17 -15 22 -42 20 l-34 -2 33 10 c17 5 32 14 32 20
0 6 -8 6 -21 -2 -12 -6 -39 -8 -63 -5 -22 4 -59 7 -81 7 -22 1 -32 3 -22 6 30
8 18 23 -19 23 -29 0 -35 -3 -30 -16z"/>
<path d="M3223 1710 c-8 -41 -45 -51 -77 -21 -32 30 -66 25 -35 -6 8 -8 8 -17
-1 -33 -11 -20 -13 -20 -34 -6 -13 8 -33 12 -45 9 -14 -3 -23 0 -27 11 -11 30
-46 16 -101 -39 -54 -54 -64 -85 -28 -85 12 0 15 6 10 19 -8 26 12 37 34 17
23 -21 34 -20 56 4 27 29 41 25 58 -19 23 -56 73 -71 80 -23 3 22 4 20 6 -10
2 -51 21 -48 21 3 0 27 4 38 11 33 12 -7 8 -96 -6 -144 -6 -18 -5 -22 3 -15
15 14 45 133 39 156 -3 11 -1 19 5 19 18 0 4 -113 -20 -160 -12 -24 -20 -46
-17 -48 9 -9 45 66 56 118 6 30 15 69 19 85 l8 30 1 -35 c1 -19 -3 -50 -8 -68
-6 -18 -6 -32 -1 -32 5 0 14 18 20 40 6 21 16 42 22 46 8 5 9 2 5 -10 -16 -42
-20 -69 -8 -62 6 4 14 25 17 47 4 22 11 36 15 32 5 -5 5 -23 0 -41 -5 -18 -6
-32 -1 -32 13 0 20 28 20 78 0 36 3 43 11 32 8 -11 9 -1 6 40 -2 30 -9 56 -15
58 -5 1 -20 12 -33 23 -33 29 -58 25 -66 -11z"/>
<path d="M1740 2730 c0 -11 16 -66 34 -122 19 -57 49 -159 66 -228 35 -138 43
-159 55 -140 4 6 -2 46 -13 88 -31 113 -79 312 -86 354 -10 54 -56 95 -56 48z"/>
<path d="M2403 2708 c-5 -7 -22 -44 -38 -83 -15 -38 -36 -88 -46 -110 -51
-120 -121 -307 -116 -312 6 -5 43 69 112 227 18 41 53 119 79 174 25 54 46
102 46 107 0 13 -26 11 -37 -3z"/>
<path d="M2619 2477 c-42 -50 -129 -150 -194 -220 -64 -71 -114 -131 -111
-135 4 -3 53 43 109 103 56 60 148 156 205 213 83 84 101 106 91 118 -6 8 -14
14 -18 14 -3 0 -40 -42 -82 -93z"/>
<path d="M2773 2247 c-191 -116 -299 -179 -332 -193 -34 -14 -60 -44 -39 -44
8 0 18 4 24 9 10 11 38 26 229 126 150 78 188 99 248 137 44 28 55 48 31 54
-5 2 -77 -39 -161 -89z"/>
<path d="M2885 2128 c-33 -11 -151 -49 -262 -85 -112 -36 -203 -70 -203 -74 0
-11 3 -11 37 2 42 16 188 56 358 98 125 32 150 41 150 56 0 25 -10 25 -80 3z"/>
</g>
</svg>
